<svg width="471" height="120" viewBox="0 0 471 120" fill="none" xmlns="http://www.w3.org/2000/svg">
<path d="M160.634 83.7218C160.634 83.719 160.634 83.7162 160.634 83.7137C160.631 83.6973 160.634 83.6863 160.631 83.6697H160.628C158.531 55.8409 152.103 35.1999 143.065 21.2485C138.541 14.2729 133.344 8.9696 127.67 5.39345C122.005 1.81448 115.852 -0.00530233 109.655 0.000348186C105.088 -0.00247707 101.184 0.825637 97.875 2.07566C92.9038 3.94974 89.2869 6.72007 86.4597 8.76806C85.0487 9.79771 83.8313 10.6393 82.8343 11.1513C81.8263 11.6718 81.1156 11.8542 80.5 11.8542C80.0831 11.8514 79.6446 11.7754 79.0808 11.5654C78.1029 11.2085 76.793 10.3938 75.2265 9.26374C72.8624 7.58302 69.926 5.2569 66.0529 3.34765C62.1795 1.43527 57.3367 -0.00812741 51.3443 3.44414e-05C45.1479 -0.00561607 38.9948 1.81668 33.3292 5.39314C24.8173 10.7671 17.3841 19.9843 11.6664 32.9824C5.95779 45.9783 1.93996 62.8005 0.371316 83.67H0.368805C0.36598 83.6863 0.368805 83.7001 0.36598 83.714C0.36598 83.7165 0.36598 83.7193 0.36598 83.7221C0.213416 85.4217 0.137134 87.0748 0.137134 88.6792C0.134309 96.5453 1.94844 103.262 5.36417 108.5C8.76892 113.741 13.7969 117.399 19.6832 119.118C21.7017 119.712 23.7855 120 25.8853 120C31.9894 119.992 38.1425 117.609 43.9958 113.482C49.8601 109.342 55.4845 103.42 60.6052 95.9869C63.0679 92.3997 66.4126 88.2024 70.0186 85.0456C71.8192 83.466 73.6795 82.1532 75.4688 81.2704C77.2613 80.3852 78.9502 79.9382 80.5 79.941C82.0495 79.9382 83.7387 80.3849 85.5308 81.2704C88.2164 82.5886 91.052 84.8987 93.6258 87.5839C96.2081 90.2642 98.5449 93.296 100.395 95.9844C105.515 103.42 111.14 109.342 117.001 113.482C122.858 117.609 129.01 119.992 135.114 120C137.215 120 139.298 119.711 141.314 119.118C147.203 117.399 152.231 113.741 155.633 108.5C159.049 103.262 160.863 96.5453 160.863 88.6792C160.863 87.0776 160.787 85.4217 160.634 83.7218ZM149.793 104.69C147.249 108.568 143.755 111.115 139.345 112.428C137.986 112.828 136.58 113.024 135.115 113.027C130.882 113.035 126.042 111.327 121.022 107.784C116.007 104.251 110.878 98.9233 106.136 92.0322C103.448 88.1342 99.8442 83.5526 95.5762 79.8051C93.4378 77.931 91.1283 76.2587 88.6198 75.0194C86.1163 73.7826 83.3846 72.9683 80.5 72.9683C77.6154 72.9683 74.8834 73.7826 72.3802 75.0194C68.6214 76.885 65.2929 79.6986 62.3484 82.7468C59.4123 85.7999 56.8761 89.1093 54.8636 92.0322C50.1216 98.9233 44.9897 104.251 39.978 107.784C34.9581 111.327 30.1153 113.035 25.885 113.027C24.4168 113.024 23.0142 112.828 21.6521 112.428C17.2447 111.115 13.7502 108.568 11.2037 104.69C8.67349 100.808 7.11018 95.494 7.11018 88.6792C7.11018 87.282 7.17548 85.8191 7.31423 84.2966V84.2803L7.31705 84.2448C9.33523 57.1945 15.6189 37.6023 23.7823 25.0431C27.8598 18.7566 32.3868 14.2296 37.0472 11.2932C41.7158 8.35715 46.5043 6.97873 51.3443 6.9734C55.0787 6.97622 58.0697 7.6298 60.6598 8.60231C64.5386 10.062 67.5293 12.2927 70.4408 14.412C71.9012 15.4689 73.3392 16.5011 74.9543 17.3427C76.5588 18.1762 78.4162 18.8272 80.5 18.8272C81.8809 18.8272 83.1859 18.5359 84.3568 18.0974C86.4161 17.3182 88.1238 16.147 89.8259 14.9378C92.3727 13.1073 94.9138 11.1268 98.0163 9.60717C101.119 8.09 104.749 6.98156 109.655 6.9734C114.495 6.97873 119.284 8.35715 123.952 11.2932C130.942 15.6896 137.639 23.703 142.948 35.7882C148.259 47.8627 152.163 63.9576 153.682 84.2445V84.2608L153.685 84.2963C153.821 85.8163 153.89 87.2791 153.89 88.6789C153.887 95.494 152.326 100.811 149.793 104.69Z" fill="white"/>
<path d="M50.7507 35.5542H38.5261V46.6998H27.3805V58.9244H38.5261V70.0704H50.7507V58.9244H61.8963V46.6998H50.7507V35.5542Z" fill="white"/>
<path d="M115.866 32.0623C112.309 32.0623 109.424 34.9468 109.424 38.5095C109.424 42.0696 112.309 44.9567 115.866 44.9567C119.429 44.9567 122.313 42.0696 122.313 38.5095C122.313 34.9468 119.428 32.0623 115.866 32.0623Z" fill="white"/>
<path d="M115.866 63.217C112.309 63.217 109.424 66.1016 109.424 69.6618C109.424 73.2244 112.309 76.109 115.866 76.109C119.429 76.109 122.313 73.2244 122.313 69.6618C122.313 66.1016 119.428 63.217 115.866 63.217Z" fill="white"/>
<path d="M131.443 47.6423C127.883 47.6423 124.996 50.5269 124.996 54.0871C124.996 57.6497 127.883 60.5315 131.443 60.5315C135.006 60.5315 137.89 57.6497 137.89 54.0871C137.89 50.5269 135.006 47.6423 131.443 47.6423Z" fill="white"/>
<path d="M100.294 47.6423C96.7311 47.6423 93.8465 50.5269 93.8465 54.0871C93.8465 57.6497 96.7311 60.5315 100.294 60.5315C103.854 60.5315 106.741 57.6497 106.741 54.0871C106.741 50.5269 103.854 47.6423 100.294 47.6423Z" fill="white"/>
<path d="M167.332 20.875H173.66L181.863 45.2734L190.043 20.875H196.371L184.418 55H179.285L167.332 20.875ZM163.675 20.875H170.121L171.316 46.1641V55H163.675V20.875ZM193.582 20.875H200.05V55H192.386V46.1641L193.582 20.875ZM220.324 27.3672L211.511 55H203.355L215.988 20.875H221.144L220.324 27.3672ZM227.636 55L218.8 27.3672L217.886 20.875H223.113L235.793 55H227.636ZM227.261 42.2969V48.2031H209.472V42.2969H227.261ZM266.777 20.875V55H259.16L246.269 32.9453V55H238.628V20.875H246.269L259.183 42.9297V20.875H266.777ZM283.23 55H275.73L275.777 49.0938H283.23C284.933 49.0938 286.371 48.7031 287.543 47.9219C288.714 47.125 289.605 45.9531 290.214 44.4062C290.824 42.8438 291.128 40.9453 291.128 38.7109V37.1406C291.128 35.4531 290.957 33.9688 290.613 32.6875C290.269 31.3906 289.761 30.3047 289.089 29.4297C288.418 28.5547 287.582 27.8984 286.582 27.4609C285.597 27.0234 284.464 26.8047 283.183 26.8047H275.589V20.875H283.183C285.496 20.875 287.605 21.2656 289.511 22.0469C291.433 22.8281 293.089 23.9453 294.48 25.3984C295.886 26.8516 296.972 28.5703 297.738 30.5547C298.503 32.5391 298.886 34.75 298.886 37.1875V38.7109C298.886 41.1328 298.503 43.3438 297.738 45.3438C296.972 47.3281 295.886 49.0469 294.48 50.5C293.089 51.9375 291.441 53.0469 289.535 53.8281C287.628 54.6094 285.527 55 283.23 55ZM280.066 20.875V55H272.425V20.875H280.066ZM317.214 27.3672L308.402 55H300.246L312.878 20.875H318.035L317.214 27.3672ZM324.527 55L315.691 27.3672L314.777 20.875H320.003L332.683 55H324.527ZM324.152 42.2969V48.2031H306.363V42.2969H324.152ZM354.668 43.5625H362.261C362.136 45.9062 361.496 47.9766 360.339 49.7734C359.199 51.5547 357.613 52.9531 355.582 53.9688C353.55 54.9688 351.136 55.4688 348.339 55.4688C346.105 55.4688 344.105 55.0859 342.339 54.3203C340.574 53.5547 339.074 52.4609 337.839 51.0391C336.621 49.6016 335.683 47.875 335.027 45.8594C334.386 43.8281 334.066 41.5391 334.066 38.9922V36.9062C334.066 34.3594 334.402 32.0703 335.074 30.0391C335.746 28.0078 336.707 26.2734 337.957 24.8359C339.207 23.3984 340.707 22.2969 342.457 21.5312C344.207 20.7656 346.16 20.3828 348.316 20.3828C351.222 20.3828 353.675 20.9062 355.675 21.9531C357.675 23 359.222 24.4375 360.316 26.2656C361.425 28.0938 362.089 30.1797 362.308 32.5234H354.691C354.628 31.1953 354.378 30.0781 353.941 29.1719C353.503 28.25 352.832 27.5547 351.925 27.0859C351.019 26.6172 349.816 26.3828 348.316 26.3828C347.222 26.3828 346.261 26.5859 345.433 26.9922C344.621 27.3984 343.941 28.0312 343.394 28.8906C342.863 29.75 342.464 30.8438 342.199 32.1719C341.933 33.4844 341.8 35.0469 341.8 36.8594V38.9922C341.8 40.7891 341.918 42.3438 342.152 43.6562C342.386 44.9688 342.761 46.0547 343.277 46.9141C343.808 47.7734 344.488 48.4141 345.316 48.8359C346.144 49.2578 347.152 49.4688 348.339 49.4688C349.699 49.4688 350.832 49.2578 351.738 48.8359C352.644 48.3984 353.339 47.7422 353.824 46.8672C354.308 45.9922 354.589 44.8906 354.668 43.5625ZM380.683 27.3672L371.871 55H363.714L376.347 20.875H381.503L380.683 27.3672ZM387.996 55L379.16 27.3672L378.246 20.875H383.472L396.152 55H387.996ZM387.621 42.2969V48.2031H369.832V42.2969H387.621ZM398.988 20.875H412.089C414.699 20.875 416.957 21.2656 418.863 22.0469C420.785 22.8281 422.261 23.9844 423.293 25.5156C424.324 27.0469 424.839 28.9375 424.839 31.1875C424.839 33.0625 424.535 34.6562 423.925 35.9688C423.316 37.2812 422.457 38.3672 421.347 39.2266C420.253 40.0859 418.972 40.7812 417.503 41.3125L415.019 42.6719H403.863L403.816 36.7422H412.113C413.253 36.7422 414.199 36.5391 414.949 36.1328C415.699 35.7266 416.261 35.1562 416.636 34.4219C417.027 33.6719 417.222 32.7969 417.222 31.7969C417.222 30.7656 417.027 29.875 416.636 29.125C416.246 28.375 415.668 27.8047 414.902 27.4141C414.152 27.0078 413.214 26.8047 412.089 26.8047H406.628V55H398.988V20.875ZM417.878 55L410.214 39.8359L418.277 39.8125L426.058 54.6484V55H417.878ZM448.699 20.875H456.339V43.2812C456.339 45.9375 455.777 48.1719 454.652 49.9844C453.543 51.7969 451.996 53.1641 450.011 54.0859C448.027 55.0078 445.73 55.4688 443.121 55.4688C440.496 55.4688 438.183 55.0078 436.183 54.0859C434.199 53.1641 432.636 51.7969 431.496 49.9844C430.371 48.1719 429.808 45.9375 429.808 43.2812V20.875H437.472V43.2812C437.472 44.75 437.691 45.9531 438.128 46.8906C438.582 47.8125 439.23 48.4922 440.074 48.9297C440.918 49.3516 441.933 49.5625 443.121 49.5625C444.308 49.5625 445.316 49.3516 446.144 48.9297C446.988 48.4922 447.621 47.8125 448.043 46.8906C448.48 45.9531 448.699 44.75 448.699 43.2812V20.875Z" fill="white"/>
<path d="M182.572 87.8359V96.9414C182.279 97.375 181.775 97.8555 181.06 98.3828C180.345 98.9102 179.384 99.373 178.177 99.7715C176.97 100.158 175.47 100.352 173.677 100.352C172.177 100.352 170.8 100.082 169.546 99.543C168.293 99.0039 167.203 98.2246 166.277 97.2051C165.363 96.1738 164.654 94.9375 164.15 93.4961C163.658 92.0547 163.412 90.4375 163.412 88.6445V85.5508C163.412 83.793 163.64 82.2109 164.097 80.8047C164.554 79.3867 165.216 78.1738 166.084 77.166C166.951 76.1582 167.994 75.3906 169.212 74.8633C170.443 74.3242 171.82 74.0547 173.343 74.0547C175.242 74.0547 176.841 74.3828 178.142 75.0391C179.443 75.6953 180.457 76.5977 181.183 77.7461C181.921 78.8828 182.378 80.1719 182.554 81.6133H180.392C180.228 80.5938 179.888 79.6562 179.373 78.8008C178.857 77.9336 178.107 77.2363 177.123 76.709C176.15 76.1816 174.89 75.918 173.343 75.918C172.101 75.918 170.994 76.1465 170.021 76.6035C169.06 77.0605 168.252 77.7109 167.595 78.5547C166.939 79.3984 166.441 80.4121 166.101 81.5957C165.761 82.7676 165.591 84.0742 165.591 85.5156V88.6445C165.591 90.1445 165.779 91.498 166.154 92.7051C166.541 93.9121 167.091 94.9492 167.806 95.8164C168.521 96.6836 169.377 97.3516 170.373 97.8203C171.369 98.2773 172.476 98.5059 173.695 98.5059C174.996 98.5059 176.103 98.3828 177.017 98.1367C177.931 97.8906 178.664 97.5977 179.214 97.2578C179.777 96.9062 180.181 96.5781 180.427 96.2734V89.6816H173.554V87.8359H182.572ZM197.162 75.9355L188.302 100H186.052L195.72 74.4062H197.285L197.162 75.9355ZM205.212 100L196.336 75.9355L196.212 74.4062H197.777L207.462 100H205.212ZM203.63 90.9648V92.8281H190.043V90.9648H203.63ZM211.927 74.4062H214.107L223.564 96.9414L233.039 74.4062H235.201L224.39 100H222.738L211.927 74.4062ZM211.259 74.4062H213.175L213.404 88.8203V100H211.259V74.4062ZM233.988 74.4062H235.904V100H233.742V88.8203L233.988 74.4062ZM258.316 98.1543V100H243.919V98.1543H258.316ZM244.57 74.4062V100H242.408V74.4062H244.57ZM256.523 85.8848V87.7305H243.919V85.8848H256.523ZM258.228 74.4062V76.2695H243.919V74.4062H258.228ZM277.388 93.707C277.388 93.0039 277.271 92.377 277.037 91.8262C276.802 91.2754 276.416 90.7832 275.877 90.3496C275.349 89.9043 274.634 89.4941 273.732 89.1191C272.841 88.7324 271.728 88.3516 270.392 87.9766C269.115 87.6133 267.961 87.2148 266.929 86.7812C265.898 86.3477 265.013 85.8496 264.275 85.2871C263.548 84.7246 262.992 84.0684 262.605 83.3184C262.218 82.5566 262.025 81.6719 262.025 80.6641C262.025 79.6797 262.236 78.7832 262.658 77.9746C263.08 77.166 263.671 76.4688 264.433 75.8828C265.207 75.2969 266.115 74.8457 267.158 74.5293C268.212 74.2129 269.367 74.0547 270.621 74.0547C272.414 74.0547 273.961 74.3945 275.261 75.0742C276.574 75.7539 277.587 76.6738 278.302 77.834C279.029 78.9824 279.392 80.2715 279.392 81.7012H277.23C277.23 80.5879 276.966 79.5977 276.439 78.7305C275.923 77.8516 275.173 77.166 274.189 76.6738C273.216 76.1699 272.027 75.918 270.621 75.918C269.214 75.918 268.031 76.1348 267.07 76.5684C266.121 76.9902 265.4 77.5586 264.908 78.2734C264.427 78.9766 264.187 79.7617 264.187 80.6289C264.187 81.2383 264.304 81.8008 264.539 82.3164C264.773 82.8203 265.154 83.2949 265.681 83.7402C266.22 84.1738 266.929 84.584 267.808 84.9707C268.687 85.3457 269.771 85.7031 271.06 86.043C272.419 86.418 273.627 86.834 274.681 87.291C275.736 87.748 276.627 88.2754 277.353 88.873C278.08 89.459 278.63 90.1445 279.005 90.9297C279.38 91.7148 279.568 92.6289 279.568 93.6719C279.568 94.7148 279.345 95.6523 278.9 96.4844C278.466 97.3047 277.851 98.002 277.054 98.5762C276.269 99.1504 275.337 99.5898 274.259 99.8945C273.193 100.199 272.027 100.352 270.761 100.352C269.625 100.352 268.494 100.205 267.369 99.9121C266.244 99.6191 265.212 99.168 264.275 98.5586C263.349 97.9375 262.605 97.1406 262.043 96.168C261.492 95.1953 261.216 94.0352 261.216 92.6875H263.361C263.361 93.7656 263.578 94.6738 264.011 95.4121C264.445 96.1504 265.019 96.748 265.734 97.2051C266.461 97.6621 267.257 97.9961 268.125 98.207C269.003 98.4062 269.882 98.5059 270.761 98.5059C272.109 98.5059 273.275 98.3066 274.259 97.9082C275.255 97.5098 276.023 96.9531 276.562 96.2383C277.113 95.5117 277.388 94.668 277.388 93.707Z" fill="white"/>
</svg>
